<?xml version="1.0" encoding="utf-8"?>
<!-- Generator: Adobe Illustrator 23.0.3, SVG Export Plug-In . SVG Version: 6.00 Build 0)  -->
<svg version="1.1" id="Warstwa_1" xmlns="http://www.w3.org/2000/svg" xmlns:xlink="http://www.w3.org/1999/xlink" x="0px" y="0px"
	 viewBox="0 0 565.4 157.5" style="enable-background:new 0 0 565.4 157.5;" xml:space="preserve">
<style type="text/css">
	.st0{fill:#1C344C;}
	.st1{fill:url(#SVGID_1_);}
	.st2{fill:url(#SVGID_2_);}
	.st3{fill:url(#SVGID_3_);}
	.st4{fill:#FFFFFF;}
</style>
<g>
	<path class="st0" d="M78.8,0C35.4,0,0.2,35.2,0.2,78.6c0,43.4,35.2,78.6,78.6,78.6c43.4,0,78.6-35.2,78.6-78.6
		C157.4,35.2,122.2,0,78.8,0z M78.8,117.2c-21.3,0-38.6-17.3-38.6-38.6S57.5,40,78.8,40c21.3,0,38.6,17.3,38.6,38.6
		S100.1,117.2,78.8,117.2z"/>
	<linearGradient id="SVGID_1_" gradientUnits="userSpaceOnUse" x1="15.908" y1="126.4845" x2="113.1011" y2="44.9298">
		<stop  offset="0" style="stop-color:#5794FF"/>
		<stop  offset="1" style="stop-color:#2B4D77"/>
	</linearGradient>
	<path class="st1" d="M58.7,2.6L58.7,2.6C24.8,11.5-0.1,42.2-0.1,78.7c0,43.5,35.3,78.8,78.8,78.8c6.9,0,13.6-0.9,20-2.6
		c-33.8-8.9-58.8-39.6-58.8-76.2C39.9,57.3,57.3,40,78.7,40s38.8,17.3,38.8,38.8h0C117.4,42.2,92.5,11.4,58.7,2.6z"/>
	
		<linearGradient id="SVGID_2_" gradientUnits="userSpaceOnUse" x1="248.2102" y1="197.7861" x2="132.4015" y2="157.91" gradientTransform="matrix(-1 0 0 -1 287.69 256.1479)">
		<stop  offset="0" style="stop-color:#5794FF"/>
		<stop  offset="1" style="stop-color:#2B4D77"/>
	</linearGradient>
	<path class="st2" d="M98.7,154.9L98.7,154.9c33.9-8.9,58.8-39.6,58.8-76.2C157.4,35.3,122.2,0,78.7,0c-6.9,0-13.6,0.9-20,2.6
		c33.8,8.9,58.8,39.6,58.8,76.2c0,21.4-17.3,38.8-38.8,38.8s-38.8-17.3-38.8-38.8h0C39.9,115.3,64.9,146.1,98.7,154.9z"/>
	
		<linearGradient id="SVGID_3_" gradientUnits="userSpaceOnUse" x1="110.0848" y1="311.4666" x2="138.6549" y2="164.4863" gradientTransform="matrix(-0.7071 0.7071 -0.7071 -0.7071 349.6593 144.4674)">
		<stop  offset="0" style="stop-color:#5794FF"/>
		<stop  offset="1" style="stop-color:#2B4D77"/>
	</linearGradient>
	<path class="st3" d="M146.7,118.5L146.7,118.5c17.7-30.2,13.6-69.6-12.3-95.4c-30.8-30.8-80.6-30.8-111.4,0
		c-4.9,4.9-9,10.3-12.3,16c30.2-17.6,69.5-13.5,95.4,12.3c15.1,15.1,15.1,39.7,0,54.8s-39.7,15.1-54.8,0l0,0
		C77.2,132,116.6,136.1,146.7,118.5z"/>
</g>
<g>
	<path class="st4" d="M220.6,39.9l20.5,54.5l20.5-54.5h16V111h-12.3V87.5l1.2-31.3l-21,54.8h-8.8l-20.9-54.7l1.2,31.3V111h-12.3
		V39.9H220.6z"/>
	<path class="st4" d="M314.2,111.9c-7.5,0-13.6-2.4-18.3-7.1c-4.7-4.7-7-11-7-18.9v-1.5c0-5.3,1-10,3.1-14.1c2-4.2,4.9-7.4,8.6-9.7
		c3.7-2.3,7.8-3.5,12.3-3.5c7.2,0,12.8,2.3,16.7,6.9c3.9,4.6,5.9,11.1,5.9,19.5v4.8h-34.5c0.4,4.4,1.8,7.8,4.4,10.4
		c2.6,2.5,5.8,3.8,9.6,3.8c5.4,0,9.9-2.2,13.3-6.6l6.4,6.1c-2.1,3.2-4.9,5.6-8.5,7.3C322.6,111.1,318.6,111.9,314.2,111.9z
		 M312.8,66.7c-3.3,0-5.9,1.1-7.9,3.4c-2,2.3-3.3,5.5-3.8,9.5h22.6v-0.9c-0.3-4-1.3-7-3.2-9C318.7,67.7,316.1,66.7,312.8,66.7z"/>
	<path class="st4" d="M372.3,69c-1.6-0.3-3.2-0.4-4.8-0.4c-5.4,0-9.1,2.1-11,6.3V111h-11.9V58.1h11.3l0.3,5.9
		c2.9-4.6,6.8-6.9,11.9-6.9c1.7,0,3.1,0.2,4.2,0.7L372.3,69z"/>
	<path class="st4" d="M396.9,88.3l-5.3,5.4V111h-11.9V36h11.9v43.3l3.7-4.6L410,58.1h14.3l-19.6,22l21.7,30.8h-13.7L396.9,88.3z"/>
	<path class="st4" d="M464,105.8c-3.5,4.1-8.4,6.2-14.8,6.2c-5.7,0-10.1-1.7-13-5c-2.9-3.4-4.4-8.2-4.4-14.6V58.1h11.9v34.1
		c0,6.7,2.8,10.1,8.3,10.1c5.8,0,9.7-2.1,11.7-6.2V58.1h11.9V111h-11.2L464,105.8z"/>
	<path class="st4" d="M515.2,69c-1.6-0.3-3.2-0.4-4.8-0.4c-5.4,0-9.1,2.1-11,6.3V111h-11.9V58.1h11.3l0.3,5.9
		c2.9-4.6,6.8-6.9,11.9-6.9c1.7,0,3.1,0.2,4.2,0.7L515.2,69z"/>
	<path class="st4" d="M542,94l10.7-35.8h12.6l-21,60.8c-3.2,8.9-8.7,13.3-16.4,13.3c-1.7,0-3.6-0.3-5.7-0.9v-9.2l2.2,0.1
		c3,0,5.2-0.5,6.8-1.6c1.5-1.1,2.7-2.9,3.6-5.5l1.7-4.5l-18.6-52.5h12.8L542,94z"/>
</g>
</svg>
