<?xml version="1.0" encoding="utf-8"?>
<!-- Generator: Adobe Illustrator 23.1.0, SVG Export Plug-In . SVG Version: 6.00 Build 0)  -->
<svg version="1.1" id="Layer_1" xmlns="http://www.w3.org/2000/svg" xmlns:xlink="http://www.w3.org/1999/xlink" x="0px" y="0px"
	 viewBox="0 0 44.6 44.6" style="enable-background:new 0 0 44.6 44.6;" xml:space="preserve">
<style type="text/css">
	.st0{fill:#0EC328;}
</style>
<g>
	<path class="st0" d="M22.3,0C10,0,0,10,0,22.3s10,22.3,22.3,22.3s22.3-10,22.3-22.3S34.6,0,22.3,0L22.3,0z M22.3,41
		C12,41,3.6,32.6,3.6,22.3S12,3.6,22.3,3.6S41,12,41,22.3S32.6,41,22.3,41L22.3,41z"/>
	<path class="st0" d="M29.4,15.2L19,25.6l-3.8-3.8c-0.7-0.7-1.8-0.7-2.5,0s-0.7,1.8,0,2.5l5.1,5.1c0.4,0.3,0.8,0.5,1.3,0.5
		s0.9-0.2,1.3-0.5l11.7-11.7c0.7-0.7,0.7-1.8,0-2.5C31.2,14.5,30.1,14.5,29.4,15.2L29.4,15.2z"/>
</g>
</svg>
