<svg xmlns="http://www.w3.org/2000/svg" viewBox="0 0 1000 1000"><circle cx="500" cy="500" r="500" fill="#5979bb"/><path d="M374.1 680.9V298.2h131.2c43.3 0 76.2 8.7 98.8 26s33.9 43.2 33.9 77.5c0 17.5-4.7 33.3-14.2 47.3s-23.3 24.9-41.5 32.6c20.7 5.6 36.7 16.2 48 31.7 11.3 15.5 17 34.1 17 55.9 0 35.9-11.5 63.5-34.6 82.8-23 19.3-56 28.9-99 28.9H374.1zm66.5-221.6h65.2c20.7 0 36.8-4.7 48.5-14.1 11.7-9.4 17.5-22.6 17.5-39.8 0-18.9-5.4-32.6-16.2-41-10.8-8.4-27.6-12.6-50.3-12.6h-64.7v107.5zm0 48.9v119.6h73.9c20.8 0 37.1-5.2 48.9-15.5 11.7-10.3 17.6-24.7 17.6-43.1 0-39.8-20.3-60.1-61-61h-79.4z" fill="#fff"/></svg>