<?xml version="1.0" encoding="utf-8"?>
<!-- Generator: Adobe Illustrator 23.0.3, SVG Export Plug-In . SVG Version: 6.00 Build 0)  -->
<svg version="1.1" id="Слой_1" xmlns="http://www.w3.org/2000/svg" xmlns:xlink="http://www.w3.org/1999/xlink" x="0px" y="0px"
	 viewBox="0 0 41.8 76.9" style="enable-background:new 0 0 41.8 76.9;" xml:space="preserve">
<style type="text/css">
	.st0{fill:#8492AF;}
</style>
<g>
	<g>
		<path class="st0" d="M40.2,0l-10,0C19,0,11.8,7.4,11.8,18.9v8.7h-10c-0.9,0-1.6,0.7-1.6,1.6v12.6c0,0.9,0.7,1.6,1.6,1.6h10v31.9
			c0,0.9,0.7,1.6,1.6,1.6h13.1c0.9,0,1.6-0.7,1.6-1.6V43.4h11.7c0.9,0,1.6-0.7,1.6-1.6l0-12.6c0-0.4-0.2-0.8-0.5-1.1
			c-0.3-0.3-0.7-0.5-1.1-0.5H28v-7.4c0-3.6,0.8-5.4,5.5-5.4l6.7,0c0.9,0,1.6-0.7,1.6-1.6V1.6C41.8,0.7,41.1,0,40.2,0L40.2,0z
			 M40.2,0"/>
	</g>
</g>
</svg>
