<svg xmlns="http://www.w3.org/2000/svg" viewBox="0 0 71.8 70.5"><path d="M3.8 17.6c0 6 2 10.3 5.9 12.8 3.2 2.1 7 2.4 8.9 2.4h1.1s-.6 4 2.4 8H22c-5.2 0-22 1.1-22 14.9 0 14.1 15.4 14.8 18.5 14.8h1c2 0 7.1-.2 11.9-2.6 6.2-3 9.3-8.2 9.3-15.5 0-7.1-4.8-11.3-8.3-14.3-2.1-1.9-4-3.5-4-5.1 0-1.6 1.3-2.8 3.1-4.3 2.8-2.5 5.4-6 5.4-12.6 0-5.8-.8-9.7-5.4-12.2.5-.3 2.2-.4 3.1-.5 2.5-.3 6.2-.7 6.2-2.8V.1H22.4C22.2.1 3.8.8 3.8 17.6zm29.7 36.1c.4 5.6-4.5 9.8-11.7 10.3-7.3.5-13.4-2.8-13.7-8.4-.2-2.7 1-5.3 3.3-7.5 2.4-2.1 5.6-3.5 9.1-3.7h1.2c6.9 0 11.5 4 11.8 9.3zm-4.8-39.9c1.8 6.3-.9 13-5.3 14.2-.5.1-1 .2-1.5.2-4 0-7.9-4-9.4-9.6-.8-3.1-.8-5.8.2-8.5.9-2.6 2.6-4.3 4.7-4.9.5-.1 1-.2 1.5-.2 4.8.1 7.9 2 9.8 8.8zm31 13.8v-12h-7.6v12h-12v7.6h12v12h7.6v-12h12v-7.6h-12zm0 0" fill="#8492af"/></svg>