<?xml version="1.0" encoding="utf-8"?>
<!-- Generator: Adobe Illustrator 23.0.3, SVG Export Plug-In . SVG Version: 6.00 Build 0)  -->
<svg version="1.1" id="Слой_1" xmlns="http://www.w3.org/2000/svg" xmlns:xlink="http://www.w3.org/1999/xlink" x="0px" y="0px"
	 viewBox="0 0 71.8 70.5" style="enable-background:new 0 0 71.8 70.5;" xml:space="preserve">
<style type="text/css">
	.st0{fill:#8492AF;}
</style>
<g>
	<path class="st0" d="M3.8,17.6c0,6,2,10.3,5.9,12.8c3.2,2.1,7,2.4,8.9,2.4c0.5,0,0.8,0,1.1,0c0,0-0.6,4,2.4,8l-0.1,0
		c-5.2,0-22,1.1-22,14.9c0,14.1,15.4,14.8,18.5,14.8c0.2,0,0.4,0,0.4,0c0,0,0.3,0,0.6,0c2,0,7.1-0.2,11.9-2.6
		c6.2-3,9.3-8.2,9.3-15.5c0-7.1-4.8-11.3-8.3-14.3c-2.1-1.9-4-3.5-4-5.1c0-1.6,1.3-2.8,3.1-4.3c2.8-2.5,5.4-6,5.4-12.6
		c0-5.8-0.8-9.7-5.4-12.2c0.5-0.3,2.2-0.4,3.1-0.5c2.5-0.3,6.2-0.7,6.2-2.8V0.1H22.4C22.2,0.1,3.8,0.8,3.8,17.6L3.8,17.6z
		 M33.5,53.7c0.4,5.6-4.5,9.8-11.7,10.3c-7.3,0.5-13.4-2.8-13.7-8.4c-0.2-2.7,1-5.3,3.3-7.5c2.4-2.1,5.6-3.5,9.1-3.7
		c0.4,0,0.8,0,1.2,0C28.6,44.4,33.2,48.4,33.5,53.7L33.5,53.7z M28.7,13.8c1.8,6.3-0.9,13-5.3,14.2c-0.5,0.1-1,0.2-1.5,0.2
		c-4,0-7.9-4-9.4-9.6c-0.8-3.1-0.8-5.8,0.2-8.5c0.9-2.6,2.6-4.3,4.7-4.9c0.5-0.1,1-0.2,1.5-0.2C23.7,5.1,26.8,7,28.7,13.8L28.7,13.8
		z M59.7,27.6v-12h-7.6v12h-12v7.6h12v12h7.6v-12h12v-7.6H59.7z M59.7,27.6"/>
</g>
</svg>
