<?xml version="1.0" encoding="utf-8"?>
<!-- Generator: Adobe Illustrator 23.0.3, SVG Export Plug-In . SVG Version: 6.00 Build 0)  -->
<svg version="1.1" id="Warstwa_4" xmlns="http://www.w3.org/2000/svg" xmlns:xlink="http://www.w3.org/1999/xlink" x="0px" y="0px"
	 viewBox="0 0 20.2 20.1" style="enable-background:new 0 0 20.2 20.1;" xml:space="preserve">
<style type="text/css">
	.st0{fill:none;stroke:#5384FF;stroke-width:2;stroke-linecap:round;stroke-linejoin:round;stroke-miterlimit:10;}
	.st1{fill:#5384FF;}
</style>
<rect x="1.1" y="3" class="st0" width="18" height="16"/>
<line class="st0" x1="14.1" y1="1" x2="14.1" y2="5"/>
<line class="st0" x1="6.1" y1="1" x2="6.1" y2="5"/>
<path class="st1" d="M6.6,11H5.5c-0.3,0-0.5-0.2-0.5-0.5V9.5C5.1,9.2,5.3,9,5.5,9h1.1c0.3,0,0.5,0.2,0.5,0.5v1.1
	C7.1,10.8,6.9,11,6.6,11z"/>
<path class="st1" d="M10.6,11H9.5c-0.3,0-0.5-0.2-0.5-0.5V9.5C9.1,9.2,9.3,9,9.5,9h1.1c0.3,0,0.5,0.2,0.5,0.5v1.1
	C11.1,10.8,10.9,11,10.6,11z"/>
<path class="st1" d="M14.6,11h-1.1c-0.3,0-0.5-0.2-0.5-0.5V9.5c0-0.3,0.2-0.5,0.5-0.5h1.1c0.3,0,0.5,0.2,0.5,0.5v1.1
	C15.1,10.8,14.9,11,14.6,11z"/>
<path class="st1" d="M6.6,15H5.5c-0.3,0-0.5-0.2-0.5-0.5v-1.1c0-0.3,0.2-0.5,0.5-0.5h1.1c0.3,0,0.5,0.2,0.5,0.5v1.1
	C7.1,14.8,6.9,15,6.6,15z"/>
<path class="st1" d="M10.6,15H9.5c-0.3,0-0.5-0.2-0.5-0.5v-1.1c0-0.3,0.2-0.5,0.5-0.5h1.1c0.3,0,0.5,0.2,0.5,0.5v1.1
	C11.1,14.8,10.9,15,10.6,15z"/>
<path class="st1" d="M14.6,15h-1.1c-0.3,0-0.5-0.2-0.5-0.5v-1.1c0-0.3,0.2-0.5,0.5-0.5h1.1c0.3,0,0.5,0.2,0.5,0.5v1.1
	C15.1,14.8,14.9,15,14.6,15z"/>
</svg>
